<?xml version="1.0" standalone="no"?>
<!DOCTYPE svg PUBLIC "-//W3C//DTD SVG 20010904//EN"
 "http://www.w3.org/TR/2001/REC-SVG-20010904/DTD/svg10.dtd">
<svg version="1.0" xmlns="http://www.w3.org/2000/svg"
 width="700.000000pt" height="700.000000pt" viewBox="0 0 700.000000 700.000000"
 preserveAspectRatio="xMidYMid meet">
<metadata>
Created by potrace 1.11, written by Peter Selinger 2001-2013
</metadata>
<g transform="translate(0.000000,700.000000) scale(0.100000,-0.100000)"
fill="#000000" stroke="none">
<path d="M4508 6955 c-2 -1 -46 -6 -98 -10 -52 -3 -97 -8 -100 -10 -3 -2 -30
-6 -60 -10 -30 -3 -80 -11 -110 -16 -30 -6 -68 -13 -85 -15 -110 -19 -408 -99
-570 -153 -318 -106 -729 -292 -989 -445 -43 -25 -80 -46 -82 -46 -3 0 -17 -8
-32 -19 -15 -10 -74 -49 -132 -87 -350 -229 -675 -525 -863 -787 -77 -107
-132 -203 -175 -302 -19 -44 -38 -87 -42 -96 -11 -22 -47 -157 -55 -209 -4
-25 -9 -54 -12 -65 -6 -30 -5 -213 2 -270 30 -248 137 -469 312 -641 212 -209
518 -380 913 -509 63 -21 122 -40 130 -43 8 -3 20 -6 25 -7 6 -2 66 -20 135
-40 110 -33 304 -88 455 -130 55 -15 170 -45 535 -140 624 -162 936 -296 1138
-489 126 -120 205 -320 187 -475 -40 -342 -537 -696 -1080 -768 -130 -17 -431
-8 -575 17 -30 5 -68 11 -85 14 -16 2 -37 7 -45 10 -8 3 -28 7 -45 9 -47 7
-171 45 -275 84 -151 57 -321 148 -504 271 l-171 114 -34 -18 c-69 -37 -275
-281 -363 -429 -52 -87 -103 -192 -123 -254 -32 -99 -11 -242 55 -372 30 -58
136 -166 219 -222 181 -122 477 -230 786 -286 166 -31 166 -30 230 -37 33 -3
71 -7 85 -10 133 -24 520 -24 683 1 12 2 44 6 70 10 27 4 57 8 67 10 9 2 34 6
54 9 20 3 55 11 78 16 24 6 54 13 68 16 194 40 517 168 705 278 326 191 529
364 759 647 86 105 226 353 289 514 106 266 148 619 102 845 -3 14 -8 41 -11
60 -20 120 -99 305 -189 440 -56 83 -230 264 -315 326 -30 22 -71 52 -90 65
-197 143 -611 324 -1000 439 -25 7 -64 19 -86 26 -48 15 -197 54 -233 61 -14
2 -27 6 -31 8 -4 3 -240 60 -290 70 -8 2 -98 24 -200 50 -102 26 -192 48 -201
50 -38 8 -297 80 -434 121 -440 133 -665 295 -665 480 0 145 194 369 525 605
411 294 874 509 1405 654 230 63 476 52 723 -32 76 -26 79 -26 111 -9 33 18
84 61 124 107 l23 27 -173 41 c-95 23 -213 50 -263 61 l-90 20 80 -5 c155 -10
300 -26 374 -40 9 -2 41 -6 71 -10 l55 -6 46 73 c67 106 94 156 122 234 l25
69 -137 -1 c-127 -1 -375 -12 -431 -19 -14 -1 -68 -6 -120 -10 -52 -4 -102 -9
-110 -10 -8 -2 -53 -6 -99 -10 -47 -4 -92 -8 -101 -10 -45 -9 -134 -17 -130
-12 5 6 244 67 315 81 65 13 157 30 220 40 77 13 94 15 150 21 33 4 71 8 85
10 38 5 185 16 278 20 46 2 86 6 89 9 13 13 -26 92 -58 117 -34 28 -136 60
-234 74 -52 7 -251 7 -320 0 -22 -2 -62 -7 -90 -10 -27 -3 -59 -7 -70 -9 -11
-2 -42 -6 -70 -10 -27 -4 -84 -13 -125 -21 -41 -8 -91 -17 -110 -20 -19 -4
-55 -11 -80 -16 -25 -6 -56 -13 -70 -15 -14 -3 -52 -12 -85 -20 -33 -9 -78
-20 -100 -25 -22 -4 -94 -22 -160 -39 -121 -32 -159 -42 -295 -79 -41 -11 -76
-19 -77 -17 -1 1 39 19 90 41 51 21 110 46 132 56 86 38 383 136 555 184 113
31 106 29 150 39 19 4 62 13 95 21 33 8 77 16 99 20 21 3 41 7 45 9 3 2 26 7
51 10 25 3 54 8 66 10 12 2 45 7 74 11 29 4 61 8 71 10 16 3 195 17 227 18 20
0 8 20 -26 43 -61 42 -184 67 -339 69 -78 2 -143 2 -145 0z"/>
</g>
</svg>
