<?xml version="1.0" standalone="no"?>
<!DOCTYPE svg PUBLIC "-//W3C//DTD SVG 20010904//EN"
 "http://www.w3.org/TR/2001/REC-SVG-20010904/DTD/svg10.dtd">
<svg version="1.0" xmlns="http://www.w3.org/2000/svg"
 width="896.000000pt" height="896.000000pt" viewBox="0 0 896.000000 896.000000"
 preserveAspectRatio="xMidYMid meet">
<metadata>
Created by potrace 1.14, written by Peter Selinger 2001-2017
</metadata>
<g transform="translate(0.000000,896.000000) scale(0.100000,-0.100000)"
fill="#000000" stroke="none">
<path d="M4918 8955 c-2 -1 -41 -6 -88 -9 -47 -4 -94 -9 -105 -11 -11 -3 -42
-7 -70 -10 -68 -7 -141 -18 -195 -30 -14 -3 -41 -8 -60 -11 -19 -3 -62 -12
-95 -21 -33 -8 -68 -16 -77 -18 -134 -27 -508 -159 -653 -232 -27 -13 -51 -24
-53 -24 -4 2 -146 -71 -237 -122 -133 -75 -403 -252 -435 -287 -3 -3 -23 -18
-45 -35 -22 -16 -42 -32 -45 -35 -3 -3 -32 -28 -65 -55 -108 -90 -278 -256
-379 -370 -15 -16 -37 -41 -50 -55 -12 -14 -56 -68 -96 -120 -41 -52 -77 -97
-80 -100 -3 -3 -16 -22 -29 -43 -13 -21 -28 -43 -35 -50 -21 -21 -146 -223
-146 -235 0 -7 -4 -12 -9 -12 -4 0 -23 -28 -40 -62 -17 -35 -40 -78 -51 -97
-10 -19 -24 -46 -29 -60 -6 -14 -15 -33 -21 -41 -5 -8 -21 -42 -36 -75 -14
-33 -31 -73 -39 -90 -24 -54 -66 -160 -70 -175 -2 -8 -22 -67 -44 -131 -22
-64 -42 -127 -45 -140 -3 -13 -14 -57 -25 -97 -10 -40 -20 -75 -20 -77 -1 -3
-1 -6 -2 -7 -1 -6 -7 -34 -13 -63 -3 -16 -8 -41 -11 -55 -12 -61 -37 -207 -40
-244 -3 -23 -8 -63 -11 -91 -4 -27 -8 -78 -8 -112 -1 -35 -4 -63 -7 -63 -7 0
-3 -496 5 -560 3 -25 10 -90 17 -145 10 -96 13 -112 24 -172 3 -16 12 -63 20
-106 8 -44 22 -107 31 -140 9 -34 18 -71 20 -82 6 -29 34 -124 50 -168 8 -20
14 -40 14 -45 2 -17 13 -58 20 -67 4 -5 15 -35 25 -65 10 -30 24 -70 31 -87 8
-18 20 -48 28 -65 75 -178 148 -324 235 -467 31 -52 64 -108 75 -125 14 -24
131 -192 168 -241 100 -134 331 -389 346 -384 13 5 112 98 113 107 1 4 109
111 239 237 130 127 238 235 240 240 1 6 74 78 160 160 86 83 158 155 160 160
1 6 37 42 79 80 42 39 138 133 214 211 l138 141 -41 44 c-23 24 -54 60 -68 79
-15 19 -32 40 -38 45 -21 20 -74 93 -74 103 0 6 -4 12 -8 14 -20 8 -172 287
-172 314 0 8 -5 14 -12 14 -6 0 -9 3 -6 6 3 3 -5 33 -19 67 -28 72 -65 201
-79 275 -6 30 -12 63 -18 88 -28 128 -23 488 9 634 3 14 8 39 11 57 3 17 14
62 25 100 11 37 22 75 24 83 14 59 86 233 100 242 5 4 7 8 3 8 -13 0 112 216
164 285 26 34 104 132 113 141 5 6 26 28 45 50 47 52 191 179 261 231 150 111
358 218 519 268 47 15 92 29 100 32 8 3 22 7 30 9 8 1 59 12 113 23 164 35
377 45 557 26 41 -4 89 -9 105 -10 17 -2 32 -4 35 -6 3 -1 10 -3 15 -4 99 -18
100 -18 250 -66 55 -18 125 -44 155 -57 30 -14 57 -26 60 -27 5 -1 65 -32 130
-67 14 -7 39 -23 57 -35 17 -13 34 -23 37 -23 15 0 177 -127 265 -207 l46 -42
100 97 c55 53 134 134 175 178 41 45 80 83 85 84 6 2 78 74 160 160 83 86 155
159 160 160 6 2 114 110 240 240 127 130 235 238 240 240 6 1 42 37 80 80 39
43 75 78 81 79 31 3 17 33 -45 92 -88 85 -154 143 -199 176 -20 16 -41 33 -47
39 -5 6 -37 31 -70 56 -269 202 -567 372 -865 494 -108 44 -379 137 -431 148
-13 3 -51 13 -84 22 -33 9 -69 18 -80 19 -11 2 -33 6 -50 10 -83 17 -174 34
-210 39 -22 3 -50 8 -63 10 -13 3 -51 8 -85 11 -34 4 -82 9 -107 12 -50 5
-567 13 -572 8z"/>
<path d="M6484 6475 c-4 -8 -9 -15 -13 -15 -7 0 -370 -361 -372 -370 -1 -3
-36 -36 -79 -75 -43 -38 -79 -74 -80 -80 -2 -5 -74 -77 -160 -160 -86 -82
-158 -152 -159 -155 0 -3 -105 -109 -232 -236 l-231 -230 29 -31 c106 -115
152 -174 232 -297 90 -138 220 -437 236 -539 2 -12 11 -53 19 -91 28 -126 42
-262 40 -406 -1 -133 -9 -220 -29 -320 -3 -14 -8 -38 -11 -55 -3 -16 -10 -48
-16 -70 -5 -22 -12 -47 -13 -55 -8 -35 -64 -190 -93 -256 -68 -155 -223 -395
-314 -487 -21 -21 -38 -40 -38 -42 0 -11 -160 -156 -221 -200 -22 -16 -49 -37
-59 -46 -25 -23 -207 -132 -216 -129 -4 1 -10 -2 -13 -7 -9 -14 -230 -113
-252 -113 -4 0 -20 -5 -36 -12 -15 -6 -32 -12 -38 -13 -5 -2 -39 -11 -75 -20
-36 -9 -74 -19 -85 -21 -38 -8 -90 -17 -102 -17 -7 0 -13 -3 -13 -6 0 -13
-345 -19 -460 -8 -79 7 -156 19 -227 35 -24 6 -43 8 -43 5 0 -3 -6 -1 -12 5
-11 8 -45 19 -88 27 -23 4 -117 39 -125 46 -5 5 -16 9 -26 9 -19 0 -219 97
-280 136 -24 16 -51 33 -60 39 -54 34 -98 66 -129 94 -19 17 -43 33 -53 37 -9
3 -15 10 -12 15 4 5 2 9 -3 9 -4 0 -30 20 -58 45 l-49 45 -38 -40 c-21 -22
-41 -40 -45 -41 -4 -1 -38 -36 -77 -79 -38 -43 -74 -79 -80 -80 -5 -2 -77 -74
-160 -160 -82 -86 -154 -159 -160 -160 -5 -2 -113 -110 -240 -240 -126 -130
-233 -238 -236 -239 -3 0 -74 -70 -157 -153 l-152 -153 75 -72 c102 -97 169
-154 289 -246 55 -43 109 -85 119 -93 9 -8 21 -14 26 -14 5 0 11 -3 13 -7 2
-5 21 -20 43 -34 22 -14 53 -34 69 -45 55 -36 101 -64 121 -74 11 -6 34 -19
50 -30 44 -28 388 -198 415 -204 3 -1 52 -20 110 -43 108 -42 260 -93 340
-113 25 -6 59 -16 75 -21 45 -14 259 -59 308 -65 23 -3 51 -7 63 -9 50 -11
106 -17 264 -32 163 -15 595 -8 740 11 14 2 48 7 75 10 53 6 97 13 132 21 12
3 40 7 64 10 116 15 360 80 549 147 63 22 125 43 138 45 12 3 22 9 22 12 0 4
6 8 13 8 6 0 38 12 70 26 32 15 60 27 63 27 7 0 208 101 289 145 123 67 316
193 439 285 90 68 112 85 121 95 6 6 23 21 39 33 77 59 249 223 366 349 75 80
215 250 250 303 8 12 20 28 26 34 21 22 182 273 233 363 44 78 116 225 191
388 62 136 168 462 195 600 2 11 10 49 19 85 8 36 17 79 20 95 14 82 16 97 20
123 3 15 7 45 11 67 34 226 41 769 11 925 -3 14 -7 50 -11 80 -7 68 -12 103
-31 203 -9 42 -17 87 -20 100 -2 12 -7 33 -10 47 -3 14 -7 32 -8 40 -2 8 -9
35 -15 60 -7 25 -15 52 -16 60 -8 35 -56 197 -65 215 -5 11 -20 52 -33 90 -30
84 -90 234 -105 261 -6 10 -35 69 -63 129 -29 61 -56 112 -61 113 -4 2 -8 12
-8 22 0 10 -4 20 -8 22 -4 2 -19 23 -33 48 -43 76 -51 90 -138 220 -81 121
-217 300 -280 368 -17 18 -31 34 -31 36 0 9 -149 156 -159 156 -6 0 -14 -7
-17 -15z"/>
</g>
</svg>
