<?xml version="1.0" standalone="no"?>
<!DOCTYPE svg PUBLIC "-//W3C//DTD SVG 20010904//EN"
 "http://www.w3.org/TR/2001/REC-SVG-20010904/DTD/svg10.dtd">
<svg version="1.0" xmlns="http://www.w3.org/2000/svg"
 width="700.000000pt" height="700.000000pt" viewBox="0 0 700.000000 700.000000"
 preserveAspectRatio="xMidYMid meet">
<metadata>
Created by potrace 1.14, written by Peter Selinger 2001-2017
</metadata>
<g transform="translate(0.000000,700.000000) scale(0.100000,-0.100000)"
fill="#000000" stroke="none">
<path d="M3665 6993 c-35 -5 -237 -40 -280 -48 -137 -27 -408 -115 -542 -176
-388 -175 -652 -355 -928 -633 -135 -136 -197 -208 -298 -344 -222 -303 -404
-693 -487 -1049 -18 -76 -22 -94 -35 -168 -3 -16 -8 -37 -10 -45 -2 -8 -7 -42
-11 -75 -3 -33 -8 -69 -10 -80 -17 -83 -23 -419 -11 -582 49 -679 338 -1328
815 -1835 l34 -36 -521 -521 c-286 -287 -521 -525 -521 -529 0 -10 107 -113
190 -183 283 -239 610 -423 975 -547 66 -23 135 -43 152 -47 18 -3 43 -9 55
-14 28 -11 216 -50 273 -57 22 -3 51 -8 65 -12 40 -9 719 -12 780 -2 30 4 75
11 100 15 182 27 469 107 648 181 224 92 405 193 632 351 132 92 383 322 508
466 273 314 503 748 607 1145 14 52 27 97 29 100 2 4 7 24 10 44 3 21 11 59
16 85 32 142 53 367 54 573 0 132 -10 337 -19 362 -2 7 -6 36 -9 63 -23 198
-91 456 -178 680 -124 318 -347 678 -564 910 -20 22 -48 52 -61 67 l-25 26
521 521 c287 287 521 525 521 529 0 8 -73 80 -167 164 -72 64 -258 201 -365
267 -106 67 -300 169 -398 210 -30 13 -68 29 -85 36 -102 45 -450 144 -560
160 -29 4 -85 14 -120 22 -33 7 -733 13 -780 6z m645 -1522 c250 -52 470 -158
663 -318 42 -36 77 -69 77 -74 0 -5 -234 -244 -521 -530 l-520 -521 23 -27
c13 -14 25 -28 28 -31 29 -28 108 -131 150 -195 117 -180 200 -408 227 -622
13 -108 5 -405 -12 -433 -2 -3 -6 -23 -9 -45 -21 -133 -120 -374 -212 -510
-244 -366 -621 -599 -1054 -653 -73 -9 -290 -8 -365 1 -133 17 -298 65 -419
121 -78 36 -235 127 -271 157 -11 9 -50 42 -87 73 l-67 57 525 525 526 526
-24 26 c-24 27 -28 31 -68 78 -46 53 -106 138 -137 194 -61 107 -70 126 -101
205 -287 726 27 1540 723 1875 157 75 320 123 465 137 36 3 67 7 69 9 14 12
300 -7 391 -25z"/>
</g>
</svg>
