<svg xmlns="http://www.w3.org/2000/svg" viewBox="0 0 58.305 14.0281"><path d="M6.2353.0006a5.9605 5.9605 0 00-4.128 1.7457 5.9605 5.9605 0 000 8.429l2.1074-2.1075a2.9802 2.9802 0 010-4.2142 2.9802 2.9802 0 014.2148-.0005l2.1073-2.1074A5.9605 5.9605 0 006.2353.0007zm2.1942 3.8525L6.322 5.9605a2.9802 2.9802 0 010 4.2147 2.9802 2.9802 0 01-4.2147 0L0 12.2826a5.9605 5.9605 0 008.4295-.0006 5.9605 5.9605 0 000-8.4289zm5.8322 1.2346c-.7392 0-1.3328.1604-1.7813.481-.446.3208-.6676.759-.6651 1.3152-.005.877.5512 1.427 1.6686 1.65l.9995.199c.486.0977.733.2895.7405.5752-.0025.1704-.0902.3109-.263.4211-.1704.1103-.3959.1654-.6765.1654-.2856 0-.5199-.06-.7028-.1803-.1804-.1203-.2956-.2983-.3457-.5339l-1.5746.0827c.0752.5512.3392.9872.7927 1.308.4535.3181 1.0626.477 1.8268.477.4986 0 .9407-.079 1.3265-.2368.3859-.1603.689-.383.9095-.6687.223-.2856.3344-.618.3344-.9963-.0025-.8143-.5587-1.3352-1.6687-1.5632l-1.0449-.2103c-.268-.0576-.4582-.1342-.571-.2295-.1103-.0952-.1643-.2115-.1617-.3493-.0025-.1729.0813-.3107.2516-.4134.173-.1052.3835-.1581.6315-.1581.2781 0 .4986.0667.6615.1994.1628.1328.2643.2916.3043.477L16.72 6.809c-.0701-.5312-.316-.9512-.7369-1.2594-.4184-.3081-.9922-.462-1.7213-.462zm6.1748 0c-.5663 0-1.0596.1251-1.4806.3756-.4184.2506-.743.6-.9735 1.0486-.2305.4485-.3458.9699-.3458 1.5637 0 .6088.1153 1.1358.3458 1.5818.2305.4435.56.7869.9885 1.03.4285.2404.9384.3606 1.5297.3606.714 0 1.3005-.1599 1.759-.4806.4585-.3207.744-.7495.8568-1.2857l-1.481-.0976c-.0802.2204-.218.387-.4134.4997-.1955.1127-.427.1695-.695.1695-.401 0-.719-.124-.9546-.3721-.2355-.248-.3534-.5876-.3534-1.0186v-.004h3.931v-.4393c0-.654-.1202-1.198-.3607-1.6315-.2405-.436-.5663-.7617-.9772-.9772-.4084-.2154-.867-.323-1.3756-.323zm6.9608 0c-.3884 0-.7246.0975-1.0077.293-.2806.1929-.4807.4597-.601.8004h-.0677V5.1626h-1.526v5.7728h1.601v-3.465c0-.3206.0903-.5775.2707-.7704.1804-.1955.4036-.293.6692-.293.2631 0 .4748.0838.6351.2516.1629.1679.244.3933.244.6765v3.6003h1.5523V7.41c0-.2982.0816-.5396.2444-.725.1629-.1854.3895-.278.6801-.278.2556 0 .4683.0799.6387.2403.1704.1603.2558.4007.2558.7214v3.5667h1.5973V7.0529c0-.6264-.1692-1.1098-.5074-1.4505-.3358-.3433-.7729-.5147-1.3116-.5147-.4234 0-.7905.1003-1.1012.3007-.3082.198-.521.462-.6387.7927h-.0605c-.0927-.3357-.2779-.6014-.556-.7968-.2781-.198-.615-.2966-1.0108-.2966zm8.8976 0c-.6915 0-1.2565.1538-1.695.462-.436.3081-.7093.7254-.8195 1.2516l1.481.1204c.0551-.193.1676-.3523.338-.4775.1704-.1253.3997-.1876.6878-.1876.273 0 .4837.065.6315.1953.1503.1303.2253.3144.2253.5524v.0228c0 .1854-.1075.3056-.323.3607-.2155.0551-.5738.1075-1.0749.1576-.3808.035-.7369.1106-1.0676.2258-.3282.1128-.5934.292-.7963.5375-.203.2455-.3044.5834-.3044 1.0144 0 .5712.1814 1.0012.5447 1.2893.3633.2881.8208.432 1.372.432.426 0 .7776-.0838 1.0557-.2517.2806-.1703.4912-.3897.6315-.6578h.045v.8005h1.5187V7.042c0-.4585-.1157-.8306-.3462-1.1162-.228-.2882-.5284-.4999-.9017-.6352-.3734-.1352-.7741-.203-1.2026-.203zm7.0224 0c-.4285 0-.7934.0986-1.094.2966-.2982.1954-.512.461-.6424.7968h-.0677V5.1626h-1.526v5.7728h1.601V7.598c.0023-.3733.1039-.6627.3043-.8682.203-.208.4664-.312.7896-.312.3208 0 .5727.1002.7556.3007.1829.198.2728.4735.2702.8268v3.39h1.601V7.2596c0-.674-.1814-1.2037-.5447-1.5895-.3633-.3884-.8456-.5824-1.447-.5824zm3.2432.0749v3.6757c.0023.674.1827 1.2054.541 1.5937.3608.3859.832.5788 1.4134.5788.4334 0 .8005-.103 1.1012-.3085.3032-.2054.5198-.4772.65-.8154h.06v1.0485h1.5374V5.1626h-1.601v3.315c.0024.3859-.1088.6791-.3343.8796-.223.2004-.4787.3002-.7669.3002-.3031 0-.5451-.0987-.7255-.2966-.1804-.198-.2719-.4675-.2744-.8082v-3.39zm6.2575 0l1.6536 2.8866-1.7136 2.8862h1.6537l1.1198-1.9958 1.139 1.9958h1.6345l-1.7172-2.8862L58.26 5.1626h-1.6423L55.5315 7.181l-1.0599-2.0185zM20.4628 6.2829c.3483 0 .6316.1114.8496.3344.218.223.3282.5058.3307.849H19.219c.0175-.3282.1404-.6071.3684-.8376.228-.2306.5196-.3458.8754-.3458zm16.6926 1.9767v.6123c0 .3032-.1125.5578-.338.7633-.2255.203-.5138.3044-.8646.3044-.2455 0-.4484-.0563-.6087-.169-.1579-.1128-.2367-.2798-.2367-.5002 0-.2255.085-.397.2553-.5147.1729-.1178.3994-.1966.68-.2367.1178-.0176.2507-.038.3985-.0605a5.4057 5.4057 0 00.4211-.0863c.1328-.0326.2304-.07.293-.1126z"/></svg>