<svg xmlns="http://www.w3.org/2000/svg" width="0" height="0"><defs><clipPath id="logo.clip" clipPathUnits="objectBoundingBox"><path d="M.107 0a.102.425 0 00-.07.124.102.425 0 000 .601l.035-.15a.051.212 0 010-.3.051.212 0 01.073 0L.18.125A.102.425 0 00.107 0zm.038.275l-.037.15a.051.212 0 010 .3.051.212 0 01-.072 0L0 .875a.102.425 0 00.145 0 .102.425 0 000-.6zm.1.088c-.013 0-.023.011-.03.034a.305.305 0 00-.012.094c0 .062.01.101.028.117l.017.015c.009.007.013.02.013.04a.087.087 0 01-.004.03C.254.702.25.706.245.706S.236.701.233.693A.14.14 0 01.227.654L.2.66C.201.7.206.73.214.754c.007.022.018.034.03.034.01 0 .017-.006.024-.017A.152.152 0 00.283.723.389.389 0 00.29.652C.289.594.279.557.26.541L.242.526a.034.034 0 01-.01-.017A.092.092 0 01.23.484a.08.08 0 01.004-.03C.237.448.241.445.245.445c.005 0 .009.004.011.014.003.01.005.02.006.034L.287.485a.332.332 0 00-.013-.09C.267.375.257.364.244.364zm.106 0C.34.363.332.372.325.389a.31.31 0 00-.017.075.92.92 0 00.017.298c.008.017.016.026.027.026.012 0 .022-.012.03-.035A.344.344 0 00.396.662L.371.655A.126.126 0 01.364.69C.361.698.357.702.352.702.345.702.34.694.336.676A.341.341 0 01.33.603h.067V.572A.905.905 0 00.391.455a.258.258 0 00-.017-.07C.367.37.36.364.351.364zm.119 0C.463.363.457.37.453.383a.242.242 0 00-.01.058H.44V.368H.415V.78h.027V.533A.26.26 0 01.447.478C.45.464.454.457.46.457c.004 0 .008.006.01.018a.22.22 0 01.005.048V.78H.5V.528C.5.507.502.49.504.477.507.463.511.457.516.457c.004 0 .008.005.011.017a.223.223 0 01.004.051V.78H.56V.503A.47.47 0 00.55.399C.544.375.537.363.528.363.52.363.514.37.508.384a.219.219 0 00-.01.057H.497a.228.228 0 00-.01-.057C.482.37.477.363.47.363zm.153 0C.61.363.6.373.593.396A.34.34 0 00.58.485l.026.008C.605.48.608.468.61.46.613.45.617.446.622.446c.005 0 .009.005.011.014.003.01.004.022.004.04 0 .014-.002.023-.005.027a.054.054 0 01-.019.01.041.041 0 00-.018.017.105.105 0 00-.014.038.39.39 0 00-.005.073c0 .04.003.071.01.092.005.02.013.03.023.03C.616.787.622.781.627.77a.196.196 0 00.01-.047h.001V.78h.027V.502a.432.432 0 00-.006-.08.128.128 0 00-.016-.045C.637.367.63.363.623.363zm.12 0C.736.363.729.37.724.383a.233.233 0 00-.01.058H.711V.368H.686V.78h.027V.542C.713.515.715.494.72.48.722.465.727.458.732.458c.006 0 .01.007.013.02a.284.284 0 01.005.06V.78h.027V.518a.538.538 0 00-.01-.114C.763.377.754.363.744.363zm.056.005V.63c0 .048.003.086.009.114.006.027.014.04.024.04C.84.785.846.779.851.764A.246.246 0 00.862.705h.001V.78H.89V.368H.862v.236a.254.254 0 01-.006.063C.853.681.848.688.843.688.838.688.833.681.831.668A.284.284 0 01.826.61V.368zm.107 0l.028.206-.03.206h.03L.951.637l.02.143H1L.97.574 1 .368H.97L.952.512.934.368zM.35.448c.006 0 .01.008.015.024a.273.273 0 01.005.06H.33C.33.51.332.49.336.472.34.457.345.449.35.449zm.286.14v.044c0 .022-.002.04-.006.055C.628.7.623.709.617.709.612.709.609.705.607.697A.119.119 0 01.601.66c0-.016.002-.028.005-.037C.609.616.613.61.618.607L.625.603A.093.385 0 00.632.597.022.022 0 00.637.589z"/></clipPath></defs></svg>